<svg width="57" height="18" viewBox="0 0 57 18" fill="none" xmlns="http://www.w3.org/2000/svg">
<g clip-path="url(#clip0_332_11139)">
<path d="M21.8103 0C21.2637 0.00357577 20.729 0.162622 20.2672 0.459024C19.1844 1.13146 18.3565 2.15351 17.9167 3.36061L17.8481 0.278196H15.8491V12.0125H17.9387V5.46656C18.0595 3.22151 19.6878 0.417295 21.8103 0.417295C22.9306 0.417295 23.8505 1.12113 23.8505 2.36467C23.8609 2.671 23.8038 2.97583 23.6831 3.25691C23.5624 3.53798 23.3813 3.78822 23.153 3.98934L23.4853 4.26753C23.7316 4.01682 23.9254 3.71833 24.0552 3.38993C24.1849 3.06153 24.2479 2.70997 24.2404 2.35632C24.2404 1.02376 23.3562 0 21.8103 0Z" fill="black"/>
<path d="M10.798 5.28451L10.3422 7.19294C9.67767 9.72731 7.52219 11.3854 5.96255 11.3854C4.29858 11.3854 3.70548 10.2726 3.70548 8.4949C3.70548 4.61684 5.72641 0.869537 8.48048 0.869537C10.1582 0.869537 10.9682 1.98232 10.9682 3.82398C10.978 4.31644 10.9207 4.80791 10.798 5.28451ZM11.284 3.47345C11.2593 1.60119 10.2461 0.224121 8.02742 0.224121C4.77361 0.224121 1.6159 3.77669 1.6159 7.88008C1.6159 10.4172 3.08766 12.053 5.39142 12.053C7.45903 12.053 9.14498 10.5313 9.99893 8.74528L9.35915 11.3047C8.4338 14.9073 7.03068 17.0021 3.75216 17.0021C2.24195 17.0021 0.492851 16.0535 0.492851 14.4733C0.492851 13.4357 1.02554 12.8737 1.80811 12.551L1.64885 12.156C1.16015 12.3008 0.732967 12.6064 0.434661 13.0245C0.136354 13.4426 -0.0160983 13.9494 0.0013467 14.465C0.0013467 16.2761 1.712 17.4361 4.06244 17.4361C7.5771 17.4361 10.2845 15.7197 11.5915 10.6982L14.1561 0.276978H12.2807L11.284 3.47345Z" fill="black"/>
<path d="M32.4789 3.84762C32.4459 3.90047 32.4157 3.95333 32.38 4.00341C31.029 5.85619 27.2123 5.99807 26.3117 6.00642C26.9268 2.95739 28.75 0.250537 31.1004 0.250537C32.4075 0.250537 32.9292 0.926554 32.9292 2.03934C32.9438 2.67233 32.7881 3.29743 32.4789 3.84762ZM31.1718 0.0335437C27.3002 0.0335437 24.0684 3.75303 24.0684 7.68951C24.0684 10.4909 26.0646 12.2408 28.5578 12.2408C29.6246 12.2651 30.675 11.9714 31.5786 11.3963C32.4821 10.8211 33.199 9.98973 33.6403 9.00538L33.2285 8.83846C32.8615 9.6768 32.2689 10.3935 31.5187 10.9067C30.7685 11.4198 29.8908 11.7086 28.9861 11.74C27.3002 11.74 26.0893 10.6273 26.0893 8.20973C26.0855 7.60204 26.1407 6.99544 26.254 6.39868C30.554 6.30131 34.519 5.28589 34.519 2.53453C34.519 1.14355 33.3328 0.0307617 31.1718 0.0307617" fill="black"/>
<path d="M43.048 3.84703C43.0176 3.9006 42.9846 3.9526 42.9492 4.00282C41.6147 5.84726 37.7897 5.98914 36.8891 5.99749C37.4959 2.9568 39.3192 0.249952 41.6696 0.249952C42.9766 0.249952 43.4983 0.925969 43.4983 2.03875C43.513 2.67175 43.3573 3.29684 43.048 3.84703ZM41.7382 0.032959C37.8666 0.032959 34.6348 3.75244 34.6348 7.68892C34.6348 10.4904 36.631 12.2513 39.1242 12.2513C40.1915 12.2762 41.2425 11.9828 42.1466 11.4076C43.0506 10.8324 43.768 10.0007 44.2095 9.01592L43.7976 8.849C43.4306 9.68734 42.8381 10.4041 42.0878 10.9172C41.3376 11.4303 40.46 11.7192 39.5553 11.7506C37.8694 11.7506 36.6584 10.6378 36.6584 8.22028C36.6547 7.61258 36.7099 7.00598 36.8232 6.40922C41.1232 6.31185 45.0909 5.29643 45.0909 2.54507C45.0909 1.15409 43.902 0.0413049 41.741 0.0413049" fill="black"/>
<path d="M52.9958 0.032959C50.9529 0.032959 49.8518 0.606044 48.8413 2.34477L48.7452 0.277772H46.749V12.0093H48.8413V4.62042C48.877 2.20567 50.5245 0.491983 52.2599 0.491983C54.0886 0.491983 54.7312 1.77169 54.7312 3.48538V12.0093H56.8207V4.08906C56.8207 1.65206 55.4478 0.032959 52.9958 0.032959Z" fill="black"/>
</g>
<defs>
<clipPath id="clip0_332_11139">
<rect width="57" height="18" fill="white"/>
</clipPath>
</defs>
</svg>
