<svg width="125" height="13" viewBox="0 0 125 13" fill="none" xmlns="http://www.w3.org/2000/svg">
<g clip-path="url(#clip0_332_11209)">
<path d="M15.1198 8.05888H11.0959L13.0664 2.81207L15.1198 8.05888ZM13.9405 0.26416H13.4582L8.88052 12.6074L8.85791 12.664H9.4419L10.9038 8.61753H15.3232L16.8303 12.6376L16.8416 12.664H18.7141L13.9518 0.290583L13.9405 0.26416Z" fill="#8A6E4B"/>
<path d="M24.8329 5.53363C22.2709 4.40877 21.7547 3.94071 21.7547 2.74414C21.7547 1.54757 22.6928 0.683164 24.0417 0.683164C25.6128 0.683164 26.8561 1.84577 26.875 3.32922V3.41226L28.1447 2.46104C27.8093 1.10593 26.1629 0.124512 24.3393 0.124512C22.2106 0.124512 20.5415 1.56267 20.5415 3.40093C20.5415 5.0467 21.5663 6.1489 24.0756 7.20204C26.4454 8.19855 27.2065 8.88932 27.2065 10.0444C27.2065 11.4448 26.1666 12.3167 24.4976 12.3167C22.8285 12.3167 21.2988 10.9654 21.2724 9.40268L19.9839 10.2746C20.534 11.7015 22.4856 12.8754 24.2677 12.8754C26.7054 12.8754 28.544 11.3089 28.544 9.22904C28.544 7.66255 27.6436 6.76417 24.8329 5.53363Z" fill="#8A6E4B"/>
<path d="M41.3763 0.26416L37.6953 9.94244L33.9992 0.26416H33.3135L30.5669 12.664H31.1622L33.2532 3.36317L36.923 12.7357H37.3713L40.8865 3.3896L42.8796 12.664H44.6731L41.9792 0.26416H41.3763Z" fill="#8A6E4B"/>
<path d="M49.4434 0.335938H47.665V12.664H49.4434V0.335938Z" fill="#8A6E4B"/>
<path d="M60.8666 9.50458L54.356 0.283034L54.3447 0.26416H53.8398V12.664H54.4012V3.51416L60.908 12.7168L60.9231 12.7357H61.4242V0.335879H60.8666V9.50458Z" fill="#8A6E4B"/>
<path d="M76.3744 9.28193C76.3744 11.207 75.4701 12.1016 73.5222 12.1016H71.9587V6.4094H73.2058C75.3383 6.4094 76.3744 7.34929 76.3744 9.28193ZM71.9624 5.84697V0.898365H72.9948C74.581 0.898365 75.3496 1.65708 75.3496 3.22357C75.3496 4.86933 74.5207 5.85075 73.1342 5.85075H71.9587L71.9624 5.84697ZM74.8485 5.89227C76.3292 5.43176 77.2334 4.37485 77.2334 3.08013C77.2334 1.23431 75.9034 0.335938 73.1718 0.335938H70.1841V12.664H73.6993C76.3405 12.664 78.2544 11.124 78.2544 8.99883C78.2544 7.2738 76.8679 6.02438 74.8447 5.89227" fill="#8A6E4B"/>
<path d="M83.2241 0.335938H81.4458V12.664H87.4025V12.1016H83.2241V0.335938Z" fill="#8A6E4B"/>
<path d="M95.4464 8.05888H91.4226L93.3893 2.81207L95.4427 8.05888H95.4464ZM94.2672 0.267935H93.7849L89.1846 12.6678H89.7686L91.2304 8.6213H95.6499L97.1683 12.6678H99.0408L94.2672 0.26416V0.267935Z" fill="#8A6E4B"/>
<path d="M106.998 0C103.121 0 100.201 2.81214 100.201 6.5453C100.201 8.34204 100.891 9.98403 102.145 11.1655C103.396 12.347 105.133 13 107.032 13C109.658 13 112.009 11.475 112.906 9.15738L112.13 8.71951C111.847 10.7918 109.677 12.4187 107.326 12.4187C105.789 12.4187 104.5 11.8676 103.596 10.822C102.695 9.77642 102.217 8.28542 102.217 6.50755C102.217 2.84988 104.169 0.577526 107.307 0.577526C109.379 0.577526 111.399 2.39315 111.557 4.49942L112.992 3.48403C111.866 1.12108 109.73 0 106.994 0" fill="#8A6E4B"/>
<path d="M118.682 6.08478L123.87 0.335938H123.067L117.661 6.31126V0.335938H115.886V12.664H117.661V7.09262L122.875 12.664H125L118.682 6.08478Z" fill="#8A6E4B"/>
<path d="M4.69829 9.85189C4.69829 11.894 3.87693 12.4036 2.81068 12.4036C1.92151 12.4036 1.09262 11.9619 0.764837 10.8409L0 11.4146C0.843958 12.8188 2.27191 12.9056 2.87097 12.9056C4.99216 12.9056 6.47663 11.3957 6.47663 9.23284V0.377441H4.69829V9.84812V9.85189Z" fill="#8A6E4B"/>
</g>
<defs>
<clipPath id="clip0_332_11209">
<rect width="125" height="13" fill="white"/>
</clipPath>
</defs>
</svg>
