<svg width="123" height="15" viewBox="0 0 123 15" fill="none" xmlns="http://www.w3.org/2000/svg">
<g clip-path="url(#clip0_332_11197)">
<path d="M88.1277 10.7497C88.1277 13.0076 87.0808 14.0604 84.8394 14.0604H83.0367V7.37822H84.4745C86.9331 7.37822 88.1277 8.48321 88.1277 10.7497ZM84.392 6.71697H83.0367V0.909256H84.2313C86.06 0.909256 86.9505 1.80108 86.9505 3.63692C86.9505 5.56848 85.9949 6.71697 84.3963 6.71697M86.3728 6.76917C88.0799 6.22973 89.1268 4.98553 89.1268 3.46726C89.1268 1.30079 87.5934 0.243652 84.4398 0.243652H80.9951V14.7129H85.0523C88.0973 14.7129 90.3083 12.9032 90.3083 10.4148C90.3083 8.39186 88.7054 6.92579 86.3728 6.76917Z" fill="#8A6E4B"/>
<path d="M95.6123 0.248047H93.562V14.7173H100.43V14.0604H95.6123V0.248047Z" fill="#8A6E4B"/>
<path d="M110.993 9.90147C110.993 12.8119 109.873 14.291 107.662 14.291C105.646 14.291 104.534 12.9685 104.534 10.5671V0.248047H102.484V10.1494C102.484 13.0772 104.347 14.9696 107.232 14.9696C110.116 14.9696 111.615 13.2382 111.615 9.96672V0.248047H110.989V9.89712L110.993 9.90147Z" fill="#8A6E4B"/>
<path d="M117.957 14.0604V7.33476H122.084V6.67786H117.957V0.9093H122.535V0.248047H115.907V14.7173H123V14.0604H117.957Z" fill="#8A6E4B"/>
<path d="M17.445 9.30972H12.8014L15.0733 3.14962L17.445 9.30972ZM16.0854 0.165283H15.5294L10.2473 14.6519L10.2212 14.7172H10.8945L12.5842 9.96662H17.6839L19.4214 14.6824L19.4345 14.7128H21.5933L16.0984 0.195736L16.0854 0.165283Z" fill="#8A6E4B"/>
<path d="M28.6564 6.35151C25.7026 5.03335 25.1031 4.48086 25.1031 3.08005C25.1031 1.67923 26.1891 0.661253 27.7398 0.661253C29.5512 0.661253 30.989 2.02291 31.0064 3.76305V3.85876L32.4746 2.74507C32.088 1.15719 30.1898 0 28.083 0C25.6244 0 23.7001 1.68794 23.7001 3.84571C23.7001 5.78161 24.8816 7.07367 27.7789 8.30917C30.5155 9.47941 31.393 10.2886 31.393 11.6415C31.393 13.286 30.1941 14.3083 28.2654 14.3083C26.3368 14.3083 24.5732 12.7204 24.5471 10.8889L23.0615 11.9156C23.6957 13.5905 25.9502 14.9695 28.0048 14.9695C30.8153 14.9695 32.9351 13.1294 32.9351 10.6888C32.9351 8.84861 31.8969 7.79582 28.652 6.35151" fill="#8A6E4B"/>
<path d="M47.7431 0.165283L43.4992 11.524L39.2336 0.165283H38.4386L35.272 14.7172H35.954L38.3735 3.80217L42.6044 14.7999H43.1213L47.1784 3.83263L49.4763 14.7172H51.5483L48.4381 0.165283H47.7431Z" fill="#8A6E4B"/>
<path d="M57.0518 0.248047H55.0015V14.7173H57.0518V0.248047Z" fill="#8A6E4B"/>
<path d="M70.2311 11.0107L62.7206 0.187035L62.7076 0.165283H62.1255V14.7172H62.7727V3.97619L70.2832 14.7825L70.2962 14.7999H70.8783V0.24794H70.2311V11.0107Z" fill="#8A6E4B"/>
<path d="M5.4211 11.4154C5.4211 13.8124 4.47415 14.4084 3.2405 14.4084C2.21536 14.4084 1.25971 13.8907 0.881798 12.5769L0 13.2469C0.973019 14.8957 2.62368 15.0001 3.31435 15.0001C5.76427 15.0001 7.47574 13.2251 7.47574 10.6889V0.295898H5.42545V11.4154H5.4211Z" fill="#8A6E4B"/>
</g>
<defs>
<clipPath id="clip0_332_11197">
<rect width="123" height="15" fill="white"/>
</clipPath>
</defs>
</svg>
