<svg width="46" height="26" viewBox="0 0 46 26" fill="none" xmlns="http://www.w3.org/2000/svg">
<g clip-path="url(#clip0_332_11171)">
<path d="M39.4524 14.6003C39.4524 13.3496 39.4173 13.4221 41.1515 13.4221C41.8754 13.4221 43.7554 13.3105 44.2253 13.9442C44.5144 14.3742 44.2253 15.2704 44.6602 15.2704C44.7683 15.2704 45.0222 15.1224 45.0222 13.0452C45.0222 12.8219 44.9871 12.6348 44.8412 12.6348H37.1376C36.6136 12.6348 36.5055 12.7102 36.5055 12.8582C36.5055 13.0815 36.9026 13.1206 37.0484 13.1569C38.0235 13.3077 38.0235 14.2039 38.0235 15.0443V23.5681C38.0235 24.4476 37.9884 24.9697 37.5184 25.193C36.9404 25.4917 36.7594 25.4555 36.7216 25.6788C36.7216 25.8268 36.8296 25.8659 36.9944 25.8659H43.3232C44.12 25.8659 44.5171 25.9022 45.0951 25.2293C45.53 24.7435 46 24.0902 46 23.4173C46 23.381 45.9811 23.194 45.8541 23.194C45.6191 23.194 45.0033 25.1204 40.8273 25.1204C39.3093 25.1204 39.4524 24.6709 39.4524 23.5681V20.1284C39.4524 19.8492 39.3984 19.5309 39.7793 19.5309H42.4561C43.9741 19.5309 43.361 21.1754 43.9201 21.1754C44.0471 21.1754 44.12 21.1 44.12 20.9325V17.5682C44.12 17.4174 44.066 17.2136 43.9201 17.2136C43.4852 17.2136 43.9741 18.7073 42.0942 18.7073H40.1412C39.4173 18.7073 39.4552 18.7073 39.4552 18.0707V14.5948L39.4524 14.6003ZM31.8028 18.9167C31.6408 18.9167 31.3869 18.8804 31.3869 19.1233C31.3869 19.5896 32.9589 19.1987 32.9589 20.0754V22.9734C32.9589 24.562 30.8439 25.4024 29.1962 25.4024C25.7064 25.4024 23.8615 22.2447 23.8615 18.9362C23.8615 15.8511 25.4876 13.0117 28.7425 13.0117C33.0102 13.0117 33.8233 16.6189 34.2933 16.6189C34.4743 16.6189 34.4932 16.4319 34.4932 16.2839L34.3122 13.8354C34.2933 13.6874 34.3662 13.4054 34.1123 13.4054C33.9124 13.4054 33.8422 13.7404 33.6423 13.7404C33.1345 13.7404 32.2323 12.4701 29.1044 12.4701C25.2715 12.4701 22.3408 15.2537 22.3408 19.2908C22.3408 23.328 24.8177 25.9999 28.8154 25.9999C32.0351 25.9999 32.5213 24.7295 34.3851 24.1125V20.2987C34.3851 19.0451 35.3062 19.4751 35.3062 19.0842C35.3062 18.8413 34.9632 18.9167 34.8173 18.9167H31.7974H31.8028ZM18.9049 22.9343C19.0859 23.4397 19.4668 24.2996 19.4668 24.71C19.4668 25.4192 18.3809 25.2321 18.3809 25.6816C18.3809 25.8687 18.6699 25.8687 18.778 25.8687H22.4677C22.5947 25.8687 22.7216 25.8687 22.7216 25.7011C22.7216 25.2349 21.6736 25.6453 21.1307 24.7854C20.7147 24.1321 16.4739 13.0285 16.4739 13.0285C16.4199 12.8777 16.2551 12.3389 16.0849 12.3389C15.8499 12.3389 15.7959 12.6376 14.729 14.994L10.4072 24.5257C9.93715 25.5923 9.0863 25.274 9.0863 25.6649C9.0863 25.7765 9.14032 25.8715 9.24836 25.8715H12.2142C12.4492 25.8715 12.7031 25.9273 12.7031 25.5923C12.7031 25.1065 11.4201 25.6676 11.4201 24.3582C11.4201 24.1153 11.493 23.8361 11.547 23.7049L12.7031 21.0888C12.8841 20.6952 13.2109 20.6952 13.554 20.6952H17.5327C18.0379 20.6952 18.1486 20.9744 18.3269 21.4043L18.9049 22.9371V22.9343ZM15.488 14.9912C15.596 14.7679 15.6879 14.7679 15.777 14.9912L17.5489 19.4946C17.6381 19.7375 17.657 19.8688 17.2599 19.8688H13.6782C13.4432 19.8688 13.3163 19.7934 13.4432 19.5337L15.488 14.9912ZM0.47778 24.9724C0.550711 25.3075 2.1957 25.9999 3.53276 25.9999C7.63849 25.9999 8.70544 23.6463 8.70544 22.0744C8.70544 16.9149 1.36375 18.9725 1.36375 15.4575C1.36375 13.7376 2.88179 13.0285 4.31069 13.0285C5.90166 13.0285 7.22251 13.8493 7.76544 15.4575C7.81946 15.625 7.94642 16.0187 8.1463 16.0187C8.32728 16.0187 8.36239 15.8874 8.34618 15.7395L8.07607 13.1988C8.05716 12.9922 7.96803 12.9363 7.85998 12.9363C7.679 12.9363 7.64389 13.1429 7.47912 13.1429C7.22521 13.1429 6.62826 12.4701 4.44034 12.4701C2.25243 12.4701 0.423758 13.6092 0.423758 15.9824C0.423758 20.8599 7.76544 18.8413 7.76544 22.4485C7.76544 24.4113 6.08263 25.4024 4.36471 25.4024C1.86886 25.4024 0.783008 23.4592 0.566918 22.5993C0.475079 22.2056 0.475079 21.9823 0.223874 21.9823C0.0428976 21.9823 -0.0462398 22.1889 0.0239897 22.5602L0.475079 24.9724H0.47778Z" fill="#B3B6B7"/>
<path d="M4.70628 6.32991C4.88435 4.84651 5.86245 3.89816 6.76313 3.71132C6.98766 4.52379 7.10895 5.4127 7.12186 6.32991H4.70628ZM2.35006 3.71132C3.25074 3.89816 4.234 4.84935 4.41207 6.32991H1.99133C2.00424 5.4127 2.12553 4.52096 2.35006 3.71132ZM3.23267 1.69288C3.67656 1.97031 4.28304 2.87054 4.43272 3.66603V5.35608C4.02496 4.29732 3.20428 3.62073 2.42748 3.44521C2.48942 3.24705 2.55652 3.05455 2.63136 2.86488C2.80169 2.43741 3.00299 2.04392 3.23267 1.69288ZM4.43272 0.407651V2.85639C4.1669 2.27322 3.75914 1.71836 3.38752 1.46924C3.69463 1.0446 4.04561 0.687911 4.43272 0.407651ZM5.73083 1.46924C5.35921 1.71836 4.95145 2.27322 4.68563 2.85639V0.407651C5.07274 0.68508 5.42373 1.0446 5.73083 1.46924ZM6.68829 3.44521C5.91407 3.62073 5.09597 4.29732 4.68821 5.35608V3.66886C4.8379 2.87337 5.44437 1.97031 5.88568 1.69288C6.11537 2.04392 6.31666 2.43741 6.48441 2.86771C6.55925 3.05455 6.62635 3.24705 6.68829 3.44521ZM7.37735 6.47146C7.37735 5.13527 7.14766 3.85003 6.71668 2.7573C6.23924 1.54568 5.51405 0.605814 4.62369 0.0396327L4.55918 0L4.49466 0.0396327C3.6043 0.605814 2.87911 1.54568 2.39909 2.7573C1.96553 3.85003 1.73842 5.13527 1.73584 6.47146V6.61017H7.37477V6.47146H7.37735Z" fill="#B3B6B7"/>
</g>
<defs>
<clipPath id="clip0_332_11171">
<rect width="46" height="26" fill="white"/>
</clipPath>
</defs>
</svg>
