<svg width="67" height="14" viewBox="0 0 67 14" fill="none" xmlns="http://www.w3.org/2000/svg">
<g clip-path="url(#clip0_332_11179)">
<path d="M16.2442 8.6891H11.9202L14.0357 2.93968L16.2442 8.6891ZM14.9781 0.154297H14.4604L9.54185 13.6752L9.51758 13.7361H10.1445L11.718 9.30221H16.4666L18.0846 13.7036L18.0967 13.732H20.107L14.9903 0.182719L14.9781 0.154297Z" fill="#8A6E4B"/>
<path d="M26.6839 5.92807C23.9334 4.6978 23.3752 4.18213 23.3752 2.87471C23.3752 1.56729 24.3864 0.617169 25.8304 0.617169C27.5171 0.617169 28.856 1.88805 28.8722 3.51218V3.60151L30.2393 2.56207C29.8793 1.08005 28.1117 0 26.15 0C23.8606 0 22.0687 1.57541 22.0687 3.58933C22.0687 5.39617 23.1689 6.60209 25.8668 7.75522C28.4151 8.84745 29.2322 9.60267 29.2322 10.8654C29.2322 12.4002 28.1158 13.3544 26.3199 13.3544C24.5239 13.3544 22.8817 11.8724 22.8575 10.163L21.4741 11.1212C22.0647 12.6845 24.164 13.9716 26.0772 13.9716C28.6942 13.9716 30.6681 12.2541 30.6681 9.97622C30.6681 8.2587 29.7014 7.2761 26.6799 5.92807" fill="#8A6E4B"/>
<path d="M44.457 0.154297L40.5052 10.7558L36.5332 0.154297H35.7929L32.8442 13.7361H33.4793L35.7323 3.54873L39.672 13.8132H40.1533L43.9312 3.57715L46.0709 13.7361H48.0003L45.1042 0.154297H44.457Z" fill="#8A6E4B"/>
<path d="M53.125 0.231445H51.2158V13.7361H53.125V0.231445Z" fill="#8A6E4B"/>
<path d="M65.3973 10.2767L58.4038 0.174599L58.3916 0.154297H57.8496V13.7361H58.4523V3.71114L65.4459 13.797L65.458 13.8132H66V0.231443H65.3973V10.2767Z" fill="#8A6E4B"/>
<path d="M5.04799 10.6543C5.04799 12.8916 4.16621 13.4478 3.01747 13.4478C2.06288 13.4478 1.17301 12.9646 0.821107 11.7384L0 12.3637C0.906049 13.9026 2.4431 14 3.08623 14C5.36753 14 6.96121 12.3434 6.96121 9.97624V0.276123H5.05203V10.6543H5.04799Z" fill="#8A6E4B"/>
</g>
<defs>
<clipPath id="clip0_332_11179">
<rect width="66" height="14" fill="white"/>
</clipPath>
</defs>
</svg>
