<svg width="58" height="14" viewBox="0 0 58 14" fill="none" xmlns="http://www.w3.org/2000/svg">
<g clip-path="url(#clip0_332_11632)">
<path d="M52.105 10.4724C49.6195 10.4724 47.7152 8.40614 47.7152 5.90745C47.7152 3.40877 49.7191 1.30297 52.0856 1.30297C54.751 1.30297 56.5944 3.34941 56.5944 5.93007C56.5944 8.51073 54.7095 10.4752 52.105 10.4752M52.105 0.0112305C50.3612 0.0112305 48.8583 0.788537 47.8342 2.26401H47.7955V0.299541H45.0304L41.9221 5.68698C41.59 6.37949 40.6212 6.37667 40.2919 5.68133L37.2334 0.299541H35.7305L41.0281 9.83639L43.0348 6.45298C43.1234 6.30317 43.2839 6.2099 43.4555 6.2099C43.8375 6.2099 44.0755 6.63388 43.879 6.97025L39.8213 13.9406H41.4461L46.1403 5.88767H44.2775C43.879 5.88767 43.6326 5.44107 43.8402 5.0934L45.7002 1.95874C45.8746 1.61107 46.3894 1.73826 46.3894 2.12833V14.0028H47.7927V9.53112H47.8314C48.814 10.984 50.3972 11.7613 52.1022 11.7613C55.4707 11.7613 57.9949 9.16084 57.9949 5.86506C57.9949 2.56928 55.4347 0.0112305 52.105 0.0112305Z" fill="#FF5100"/>
<path d="M0 6.78942C0 10.6816 2.73185 13.6325 6.64834 13.6325C7.90217 13.6325 9.05082 13.4008 9.90332 12.957V11.5522C8.98163 12.1034 7.79699 12.4397 6.66772 12.4397C3.60372 12.4397 1.28981 9.95235 1.28981 6.80638C1.28981 3.66041 3.63694 1.20977 6.66495 1.20977C7.7444 1.20977 9.36082 1.72421 9.90055 2.15102V0.729255C9.37743 0.339188 7.72503 0 6.66495 0C2.95882 0 0 2.78982 0 6.78942Z" fill="#FF5100"/>
<path d="M12.0097 11.4559V0.248535H10.7227V13.4006H17.335V12.2106H12.7459C12.3391 12.2106 12.0097 11.8742 12.0097 11.4587" fill="#FF5100"/>
<path d="M24.8882 8.36927C24.8882 10.6249 23.532 12.4395 21.1987 12.4395C18.8654 12.4395 17.7001 10.9471 17.7001 8.40602V0.248535H16.4131V8.49364C16.4131 11.2665 17.8053 13.6465 21.0077 13.6465C22.7653 13.6465 24.1575 12.9003 24.8522 11.6735H24.9048V13.3977H26.1752V0.248535H24.8882V8.36927Z" fill="#FF5100"/>
<path d="M33.2943 6.39915C34.3212 5.56249 34.7031 4.83606 34.7031 3.75066C34.7031 1.76075 33.2583 0.248535 30.5624 0.248535H27.2549V13.4006H31.0828C34.4402 13.4006 35.4338 11.4276 35.4338 9.63275C35.4338 8.22794 34.6671 6.98425 33.2943 6.39915ZM28.5419 1.96709C28.5419 1.67595 28.7717 1.44135 29.0567 1.44135H30.4739C32.857 1.44135 33.4161 2.72178 33.4161 3.69695C33.4161 4.46012 33.0507 5.91863 30.5791 5.91863H29.0567C28.7717 5.91863 28.5419 5.68403 28.5419 5.39289V1.96426V1.96709ZM30.9776 12.2106H29.0567C28.7717 12.2106 28.5419 11.976 28.5419 11.6848V7.63719C28.5419 7.34605 28.7717 7.11145 29.0567 7.11145H30.9776C32.8736 7.11145 34.144 8.14314 34.144 9.63557C34.144 11.5379 32.63 12.2134 30.9776 12.2134" fill="#FF5100"/>
</g>
<defs>
<clipPath id="clip0_332_11632">
<rect width="58" height="14" fill="white"/>
</clipPath>
</defs>
</svg>
